<?xml version="1.0" encoding="utf-8"?>
<!-- Generator: Adobe Illustrator 22.0.1, SVG Export Plug-In . SVG Version: 6.00 Build 0)  -->
<svg version="1.1" id="レイヤー_1" xmlns="http://www.w3.org/2000/svg" xmlns:xlink="http://www.w3.org/1999/xlink" x="0px"
	 y="0px" viewBox="0 0 300 120" style="enable-background:new 0 0 300 120;" xml:space="preserve">
<style type="text/css">
	.st0{fill:#163572;}
</style>
<g>
	<g id="Page-1_2_">
		<g id="logo">
			<g id="Page-1" transform="translate(45.000000, 0.000000)">
				<g id="Group-3" transform="translate(0.000000, 12.273277)">
					<g id="Fill-1-Clipped">
						<g id="path-1_1_">
						</g>
						<path id="Fill-1" class="st0" d="M72,75.5c0.8,0,3,0,5.5,0c3.4-9.7,6.3-19.7,7.8-26.6l5.9,2.5c0.6,0.2,1.1,0.8,1.1,1.3
							c0,0.4-0.4,0.8-1.1,0.8l-1.5,0.4c-4.7,9.9-8.5,17.8-10.4,21.4c4,0,11.6-0.4,19.2-1.1c-1.3-2.7-3.8-6.1-5.9-8.2
							c-0.6-0.6-1.1-1.1-1.1-1.1c0-0.2,0.2-0.4,0.4-0.4c0.4,0,4,1.9,5.7,3.2c5.1,3.6,8.5,8.5,8.5,12.1c0,1.9-1.1,3.2-2.5,3.2
							c-1.3,0-1.9-0.4-2.3-1.9c-1.5-4-1.5-4-2.1-5.3c-9.1,1.7-11.2,2.1-13.5,2.5c-2.3,0.4-4.9,0.8-10.8,1.7l-0.8,1.3
							c-0.2,0.4-0.6,0.6-1.1,0.6s-0.8-0.2-1.1-0.6l-2.7-5.5H72V75.5z M70.5,46.9c0,10.8-0.2,16.1-0.4,19c-0.6,5.5-1.7,8.5-4.9,12.7
							c-2.1,2.7-4,4.7-4.4,4.7c-0.2,0-0.4-0.2-0.4-0.4c0,0,0-0.2,0.2-0.4c3.2-5.3,4-7.4,4.9-12.1c0.4-3.4,0.8-9.7,0.8-19.9
							c0-2.5,0-4.2,0-7.4l5.3,2.3h11.6v-8.9l5.7,0.4c0.6,0,1.1,0.4,1.1,1.1c0,0.4-0.2,0.8-0.6,1.1l-1.1,0.6v5.9h12.5l3.6-3.8
							l4.9,3.6c0.2,0.2,0.4,0.4,0.4,0.8c0,0.4-0.2,0.8-0.6,0.8H70.5V46.9z"/>
					</g>
				</g>
				<path id="Fill-4" class="st0" d="M173.6,63.6c0.4,0.2,0.6,0.6,0.6,1.1c0,0.4-0.4,0.6-1.1,0.6H152c3.4,12.3,10.8,19.9,24.1,24.5
					c-3,1.1-5.3,2.5-6.3,4.4c-10.2-5.9-16.5-15.4-18.4-27.7c-1.1,7.8-2.3,12.1-5.3,16.5c-3,4.4-8.2,8.5-14.2,11
					c-2.1,0.8-3.4,1.3-3.8,1.3c-0.2,0-0.4-0.2-0.4-0.4c0-0.2,0-0.4,1.3-1.1c11.2-5.9,16.1-13.7,17.3-28.5h-8.7c-2.1,0-3.8,0-8.9,0.2
					l-1.3-1.9l5.7,0.2c2.1,0,4,0,4.7,0h8.7c0-2.5,0-3.8,0-5.3c0-3.2,0-5.3-0.4-8.9l5.7,0.2c1.5,0,1.9,0.4,1.9,1.3
					c0,0.4-0.2,0.8-1.1,1.3l-1.3,0.6c0,4.7,0,8.2-0.2,10.8h14l3.6-4L173.6,63.6z"/>
				<g id="Fill-6-Clipped">
					<g id="path-3_1_">
					</g>
					<path id="Fill-6" class="st0" d="M225.8,71.9h5.7V54h-5.7V71.9z M205,85.9h4.9v-15H205V85.9z M200.8,75.1
						c-1.7,2.7-4.2,5.9-5.1,5.9c-0.2,0-0.2-0.2-0.2-0.2c0-0.2,0-0.2,0.6-1.1c4-6.6,6.1-14.4,6.8-24.1c-3,0-3.4,0-5.9,0.2l-1.1-1.7
						c1.5,0,3,0,3.4,0c1.9,0,3,0,3.4,0h6.6l2.7-3.6l3,2.1h20.7l3-3.6l4.4,3.4c0.2,0.2,0.4,0.6,0.4,0.8c0,0.4-0.2,0.6-0.8,0.6h-7v18
						h1.7l3-3.6l3.8,3.2c0.4,0.4,0.8,0.8,0.8,1.3c0,0.4-0.2,0.6-0.8,0.6h-8.5v20.5c0,0.6-0.2,1.1-1.1,1.3c-0.8,0.2-2.1,0.4-2.5,0.4
						s-0.6-0.2-0.6-1.1V73.2h-5.7c-0.2,7.4-0.8,10.8-2.5,14c-1.9,3.4-5.7,6.6-10.2,8.2c-0.6,0.2-1.1,0.4-1.5,0.4
						c-0.2,0-0.4-0.2-0.4-0.4c0,0,0-0.2,0.4-0.4c3.8-2.5,6.1-5.3,7.6-8.2c1.3-2.7,1.9-6.1,1.9-13.5c-2.3,0-2.7,0-4.9,0.2l-0.8-1.7
						c2.7,0.2,3,0.2,5.7,0.2V54h-4.4c0.2,0.2,0.2,0.4,0.2,0.6c0,0.4-0.4,0.6-1.1,0.6h-8.2c-0.8,5.7-2.1,10.2-3.8,14h5.5l1.9-2.7
						l3.6,3.4c0.2,0.2,0.4,0.6,0.4,0.8c0,0.4-0.2,0.8-0.6,0.8h-0.4v16.3c0,1.3,0,1.5-1.7,1.9c-0.6,0.2-1.5,0.4-1.9,0.4
						c-0.6,0-0.8-0.2-0.8-1.1v-2.5h-4.9v4.7c0,0.8-0.2,1.1-0.6,1.3c-0.6,0.2-2.3,0.6-3,0.6c-0.4,0-0.6-0.2-0.6-1.1V75.1H200.8z"/>
				</g>
				<g id="Fill-8-Clipped">
					<g id="path-3_2_">
					</g>
					<path id="Fill-8" class="st0" d="M68.6,27.1c0.8,0.2,1.5,0.4,1.9,1.1c0.6,0.4,0.8,1.1,0.8,1.5c0,0.4-0.4,0.8-0.8,0.8
						c-0.2,0-0.4-0.2-0.6-0.6c-0.2-1.3-0.6-1.9-1.5-2.5L68.6,27.1z M67.4,34.7c0.4,1.3,1.5,2.3,3.2,3.4c1.3-1.1,2.1-2.1,2.7-3.4
						H67.4z M65.2,27.5c1.3,0.4,2.5,1.5,2.5,2.5c0,0.4-0.2,0.8-0.6,0.8c-0.4,0-0.6-0.2-0.6-0.4c0-0.2,0-0.2-0.2-0.8
						s-0.6-1.3-1.3-1.9L65.2,27.5z M76.5,25.8C76.7,25.8,76.7,25.8,76.5,25.8c0,0.4,0,0.4-0.2,0.4c0,0,0,0-0.2,0l-0.6-0.2
						c-1.1,0-1.7,0.2-1.9,0.2c-0.8,0-1.7,0.2-2.5,0.4c-1.7,0.2-6.1,0.4-7.6,0.4c-0.4,0-0.6,0-0.6-0.2c0-0.2,0-0.2,0.6-0.2
						c5.1-0.6,8.5-1.3,11.6-2.5L76.5,25.8z M74.8,35.4c-0.8,1.1-1.9,2.3-3.2,3.2c1.7,0.8,4,1.5,7.6,1.9c-0.8,0.6-1.3,0.8-1.7,1.5
						c-3-0.6-5.1-1.5-6.8-2.5c-2.1,1.3-3.4,1.7-5.9,2.3c-1.1,0.2-2.1,0.4-2.5,0.4v-0.2c0-0.2,0-0.2,0.6-0.4c2.7-0.6,4.9-1.5,6.8-3
						c-1.5-1.3-2.1-2.1-3-4c-1.3,0-1.5,0-2.7,0l-0.4-0.4c1.7,0,2.5,0,3.2,0h6.6l0.6-0.8l1.5,1.3l0.2,0.2c0,0.4,0,0.4-0.4,0.4
						L74.8,35.4z M63.8,30.1c0.2,0.4,0.2,0.6,0.2,1.3h8.9c0.6-1.7,1.1-2.5,1.7-4.4l1.7,0.8c0.2,0,0.2,0.2,0.2,0.2
						c0,0.2,0,0.2-0.2,0.4l-0.8,0.2l-1.7,2.5h3l0.8-0.8l1.9,1.7v0.2c0,0.2-0.2,0.4-0.4,0.4l0,0h-0.6l-2.5,1.5h-0.2l1.3-2.3H64
						c0,1.1-0.2,1.3-0.4,1.7c-0.2,0.4-0.8,0.8-1.3,0.8s-0.8-0.4-0.8-0.6c0-0.4,0-0.4,1.3-1.7c0.4-0.4,0.6-1.3,0.6-1.9H63.8z"/>
				</g>
				<g id="Fill-9-Clipped">
					<g id="path-3_3_">
					</g>
					<path id="Fill-9" class="st0" d="M100.3,35.8v-2.5h-2.5c0,1.1,0,1.3,0,2.5H100.3z M96.5,35.8c0-0.6,0-1.1,0-2.5h-2.1v2.5H96.5z
						 M88.3,35.2c1.3,0.4,2.1,1.1,2.1,1.7c0,0.2-0.2,0.6-0.4,0.6s-0.4,0-0.6-0.8c-0.2-0.4-0.4-0.8-1.1-1.1V35.2z M87.7,36
						c0.8,0.6,1.5,1.3,1.5,1.9c0,0.4-0.2,0.6-0.6,0.6c-0.2,0-0.2,0-0.2-0.4c-0.2-1.1-0.4-1.7-0.8-2.1L87.7,36z M87,34.1h1.5v-2.3H87
						V34.1z M87,31.3h1.5V29H87V31.3z M87,28.6h1.5v-2.1H87V28.6z M86.6,36.4c0.6,0.6,1.1,1.5,1.1,2.3c0.2,0.4,0,0.6-0.4,0.6
						c-0.2,0-0.4-0.2-0.4-0.4v-0.2c0-0.2,0-0.4,0-0.6C86.8,37.5,86.8,37.3,86.6,36.4L86.6,36.4z M87.2,25.8H91l0.8-1.1l1.3,1.1
						l0.2,0.2c0,0.2,0,0.2-0.2,0.2h-3.6v2.1h0.8l0.6-0.8l1.3,0.8l0.2,0.2c0,0.2-0.2,0.2-0.2,0.2h-2.7v2.3h0.8l0.8-1.1l1.3,1.1
						c1.7-1.9,2.5-3.2,4-7l1.7,0.8c0.2,0,0.2,0.2,0.2,0.4c0,0.2-0.2,0.2-0.2,0.2H98c0.6,1.1,0.8,1.3,1.5,2.1
						c0.8,1.1,1.7,1.7,3.4,2.5c0.2,0.2,0.4,0.2,0.4,0.2h0.2c-0.4,0.2-0.8,0.6-1.3,1.3c-2.3-1.9-3.4-3.4-4.4-5.9
						c-1.7,2.3-1.7,2.5-3.4,4.4h3.2l0.8-1.1l1.5,1.1l0.2,0.2c0,0,0,0.2-0.2,0.2h-2.3v1.1v1.1h2.3l0.4-0.8l1.5,1.1l0.2,0.2
						c0,0,0,0.2-0.2,0.2l-0.4,0.2v3c0,0.2-0.4,0.4-0.8,0.4c-0.2,0-0.4,0-0.4-0.2v-0.6h-2.3c1.1,2.1,2.5,3.6,5.5,4.9
						c-0.2,0.2-0.4,0.2-0.4,0.2c-0.4,0.2-0.6,0.2-0.6,0.2s-0.2,0.2-0.4,0.2l-0.2,0.2c-1.9-1.3-3.6-3.4-4.2-5.5c0,0.2,0,0.2,0,0.2
						c-0.4,1.5-0.6,2.1-1.3,3c-0.6,0.8-1.5,1.5-3.2,2.1c-0.6,0.2-1.1,0.4-1.1,0.4s-0.2,0-0.2-0.2c0,0,0,0,0.6-0.4
						c2.5-1.3,3.8-3,4-5.7h-2.1v1.3c0,0.2-0.4,0.4-0.8,0.4c-0.2,0-0.2,0-0.2-0.2V32l1.3,0.8h1.9c0-1.1,0-1.1,0-1.9H94
						c-0.8,1.1-1.9,1.9-2.1,1.9c0,0-0.2,0-0.2-0.2c0,0,0.2-0.2,0.6-0.6h-2.7v2.3h1.3l0.4-0.6l1.3,1.1l0.2,0.2c0,0,0,0.2-0.2,0.2
						l-0.4,0.2c-0.2,3.4-0.4,4.9-0.8,5.7s-1.3,1.5-1.9,1.5c-0.2,0-0.4,0-0.4-0.4c0-0.2,0-0.4,0-0.4s-0.2,0-0.6-0.2L87,41.1v-0.2
						l1.7,0.2c0.2,0,0.4,0,0.4,0c0.8,0,1.1-0.4,1.5-2.1c0.2-0.8,0.2-1.9,0.2-4v-0.4h-4v0.6c0,0.2,0,0.2-0.2,0.4
						c-0.2,0-0.4,0.2-0.6,0.2c-0.2,0-0.2,0-0.2-0.2V25L87.2,25.8z M86,36.6c0.2,0.6,0.2,1.1,0.2,1.7c0,1.1-0.4,1.9-1.1,1.9
						c-0.2,0-0.6-0.2-0.6-0.4c0-0.2,0-0.2,0.6-1.1c0.2-0.4,0.4-1.1,0.4-1.7c0-0.2,0-0.2,0-0.6L86,36.6z"/>
				</g>
				<g id="Fill-10-Clipped">
					<g id="path-3_4_">
					</g>
					<path id="Fill-10" class="st0" d="M117.1,32.6c0.4-0.4,1.5-1.7,2.3-2.3c0.4-0.4,0.4-0.4,0.8-0.8c-1.1,0.2-2.1,0.2-2.5,0.2
						c-0.6,0-1.1-0.2-1.7-0.6c-0.2-0.2-0.4-0.4-0.4-0.6c0,0,0-0.2,0.2-0.2c1.3,0.4,1.5,0.6,2.1,0.6c1.3,0,3.8-0.4,4.7-0.6
						c0.2,0,0.2,0,0.4,0s0.6,0.2,1.1,0.4c0.2,0.2,0.4,0.4,0.4,0.4c0,0.2-0.2,0.4-0.8,0.4c-1.3,0.2-1.3,0.2-2.5,0.8s-1.7,1.1-3.4,2.5
						L117.1,32.6z M125.5,39c0,0.2-0.2,0.4-0.6,0.6c-0.6,0.2-1.7,0.2-3,0.2c-2.3,0-4-0.4-4.9-1.1c-0.8-0.6-1.3-1.5-1.3-2.5
						c0-0.8,0.4-2.3,0.8-2.3c0.2,0,0.2,0,0.2,0.2c0,0,0,0,0,0.2c-0.2,0.6-0.2,1.1-0.2,1.5c0,1.1,0.6,1.9,2.1,2.3
						c0.6,0.2,1.5,0.2,2.5,0.2s2.3,0,3-0.2c0.2,0,0.4,0,0.6,0C125.1,38.1,125.5,38.5,125.5,39L125.5,39z M114.5,32.4
						c-1.3,3-1.9,5.1-1.9,6.3c0,0.2,0,0.4,0,0.6c0,0.2,0,0.4,0,0.6c0,0.4-0.2,0.8-0.4,0.8c-1.1,0-1.5-1.7-1.5-4.9
						c0-2.3,0.2-3.8,1.3-6.8c0.2-0.6,0.2-0.8,0.2-1.1c0-0.4-0.2-0.8-1.1-1.5c0.6-0.2,0.6-0.2,0.8-0.2c0.4,0,1.7,1.5,1.7,2.1
						c0,0.2,0,0.2-0.2,0.6c-0.4,0.6-0.8,1.5-1.1,2.5c-0.6,1.7-0.6,2.5-0.6,3.8c0,0.8,0,1.1,0.4,1.9
						C112.6,36.2,113.7,33.7,114.5,32.4L114.5,32.4z"/>
				</g>
				<g id="Fill-11-Clipped">
					<g id="path-3_5_">
					</g>
					<path id="Fill-11" class="st0" d="M132.1,37.5c2.3,0.6,4,1.9,4,3.2c0,0.6-0.4,1.1-1.1,1.1c-0.2,0-0.4,0-0.6-0.2
						c-0.2-0.2-0.2-0.2-0.4-1.1c-0.4-1.3-0.8-1.7-2.1-2.5L132.1,37.5z"/>
				</g>
				<g id="Fill-12-Clipped">
					<g id="path-3_6_">
					</g>
					<path id="Fill-12" class="st0" d="M158.1,25.2c1.1,0.2,1.7,0.4,2.3,0.6c0.6,0.4,0.8,0.8,0.8,1.3S161,28,160.6,28
						c-0.2,0-0.2,0-0.8-0.8c-0.4-0.6-0.8-1.1-1.7-1.7V25.2z M155.8,26.5c1.7,0.4,3,1.3,3,2.1c0,0.4-0.2,0.6-0.6,0.6
						c-0.2,0-0.4-0.2-0.6-0.6c-0.4-0.8-1.1-1.5-1.9-1.9L155.8,26.5z M150.5,27.1c0-0.4,0-0.6-0.4-0.8c0,0-0.4-0.2-1.1-0.6
						c0.4-0.4,0.6-0.6,0.8-0.6c0.2,0,1.5,0.6,1.9,0.8c0.4,0.2,0.6,0.4,0.6,0.6c0,0.2,0,0.2-0.2,0.4c-0.2,0.2-0.2,0.2-0.2,0.2
						s0,0.4,0,1.1l-0.2,3.2c1.7,0.2,3.2,0.8,4.7,1.7c1.3,0.8,2.1,1.7,2.1,2.3c0,0.4-0.2,0.6-0.6,0.6c-0.4,0-0.4,0-1.3-1.1
						c-1.1-1.3-3.4-2.7-4.9-3.2v9.3c0,0.2-0.2,0.6-0.6,0.6c-0.4,0-1.1-0.4-1.1-0.8c0,0,0-0.4,0.2-0.8c0,0,0-0.4,0-0.6v-2.5v-6.1
						v-3.4L150.5,27.1z"/>
				</g>
				<g id="Fill-13-Clipped">
					<g id="path-3_7_">
					</g>
					<path id="Fill-13" class="st0" d="M179.9,26.1c1.3,0.6,1.9,0.8,1.9,1.3c0,0.2-0.2,0.6-0.4,0.6c-0.2,0-0.4,0-0.8,0
						c-0.2,0-0.4,0-0.6,0c-1.3,0-2.5,0-4.4,0.2c-2.3,0.2-2.3,0.2-3,0.6h-0.2c0,0-0.2,0-0.8-0.6c-0.4-0.4-0.6-0.6-0.6-0.8
						c0-0.2,0-0.2,0.4-0.6c-0.2-0.2,0,0,0,0c0.4,0.4,0.6,0.4,1.3,0.4c0.4,0,0.8,0,1.3,0l5.3-0.4L179.9,26.1z M181.3,30.1
						c0.4,0.2,0.6,0.4,1.3,0.8c0.4,0.2,0.4,0.4,0.4,0.6c0,0.2-0.2,0.4-0.8,0.6c-1.9,3.2-3.2,4.9-5.1,6.6c-1.5,1.1-1.7,1.3-5.3,3
						c-0.6,0.2-0.6,0.4-0.8,0.4c-0.2,0-0.2,0-0.2-0.2c0-0.2,0.2-0.2,0.4-0.4c1.9-1.1,3.6-2.1,5.1-3.6c1.7-1.5,3.8-4.7,4.4-6.3
						l-5.7,0.6c-0.8,0-2.5,0.4-3.2,0.4c-0.2,0-0.4,0.2-0.4,0.2c-0.2,0-0.2,0.2-0.4,0.2h-0.2c-0.2,0-1.7-1.5-1.7-1.7s0.2-0.4,0.4-0.8
						l0.2,0.2c0.6,0.4,0.8,0.6,1.3,0.6c0.2,0,1.3,0,2.7-0.2l7-0.4L181.3,30.1z"/>
				</g>
				<g id="Fill-14-Clipped">
					<g id="path-3_8_">
					</g>
					<path id="Fill-14" class="st0" d="M195.5,33.5c1.5,0.2,3,0.8,4.2,1.7c2.3-1.7,3.2-2.5,5.5-5.1c-3.6,0.4-5.1,0.6-8,1.1
						c-2.3,0.4-2.5,0.6-3,0.6c-0.2,0-0.4,0.2-0.4,0.2s-0.2,0.2-0.6,0.4c-0.2,0-0.2,0-0.2,0c-0.2,0-1.9-1.7-1.9-1.9
						c0-0.2,0-0.2,0.4-0.8c0.6,0.8,1.1,1.3,1.3,1.3c0.2,0,0.6,0,1.7-0.2l5.9-0.8c1.1-0.2,1.7-0.2,5.1-0.6l0.6-0.6
						c0.6,0.6,1.7,1.7,1.7,2.1c0,0.2-0.2,0.4-0.4,0.4c0,0-0.4,0-0.6,0c-2.1,1.7-4,3-6.3,4.4c0.6,0.6,1.1,1.1,1.3,1.5
						c0.4,0.6,0.6,1.3,0.6,1.7c0,0.2-0.4,0.6-0.6,0.6c-0.4,0-0.6-0.2-0.8-0.8c-1.5-2.3-3.2-3.8-5.1-4.7L195.5,33.5z"/>
				</g>
				<g id="Fill-15-Clipped">
					<g id="path-3_9_">
					</g>
					<path id="Fill-15" class="st0" d="M221.9,26.9c0-0.2,0.2-0.2,0.2-0.4s-0.2-0.2-1.1-0.8c0.4-0.4,0.4-0.6,0.6-0.6
						c0.2,0,0.8,0.2,1.5,0.6c0.4,0.2,0.6,0.4,0.6,0.6c0,0.2,0,0.2-0.2,0.2l-0.2,0.2c-0.2,0-0.2,0.2-0.4,0.2l-0.8,1.1
						c1.9-0.4,2.1-0.4,2.5-0.8c0.2,0,0.2-0.2,0.2-0.2c0.6,0,1.1,0.2,1.1,0.6c0,0.6-0.4,0.6-4.2,1.1h-0.4l-2.3,3.2
						c1.5-0.8,2.1-0.8,3-0.8s1.5,0.4,1.7,1.1c0.2,0.2,0.2,0.4,0.2,1.1l4.7-2.1c0.6,0.8,0.8,0.6,0.8,0.6c0-0.2-0.2-0.2-1.3-0.6
						c0.4-0.2,0.4-0.4,0.6-0.4c0.2,0,0.8,0.2,1.3,0.4c0.8,0.4,1.3,0.8,1.3,1.3c0,0.2-0.2,0.4-0.4,0.6c-0.2,0-0.2,0-0.8,0.2
						c-2.1,0.6-3.8,1.3-5.5,1.9v2.5v0.2c0,0.4,0,0.4-0.2,0.6c-0.2,0.2-0.4,0.2-0.6,0.2c-0.2,0-0.4,0-0.4-0.6l0,0v-2.3
						c-1.1,0.4-1.5,0.6-1.9,1.1c-1.3,0.8-1.7,1.5-1.7,2.1c0,1.1,1.1,1.5,3.6,1.5c1.7,0,3.6-0.2,4.7-0.6c0.2,0,0.4,0,0.4,0
						c0.4,0,0.8,0.4,0.8,0.8c0,0.4-0.4,0.6-1.3,0.6c-1.1,0.2-3,0.4-4,0.4c-3.4,0-5.1-0.8-5.1-2.7c0-1.1,0.6-1.7,1.9-2.7
						c0.8-0.6,1.5-1.1,2.5-1.7c0-1.1,0-1.1-0.2-1.5c-0.2-0.2-0.4-0.4-1.1-0.4s-1.3,0.2-2.1,0.8c-0.6,0.4-0.8,0.6-1.3,1.1l-1.1,1.3
						c-0.4,0.4-0.4,0.4-0.8,0.4s-0.6-0.2-0.6-0.6c0-0.2,0-0.6,0.2-0.8c0,0,0,0,0.6-0.4c0.2,0,1.3-1.3,1.3-1.3l2.3-3.4
						c-0.8,0-1.7,0.2-2.1,0.2c-0.4,0-0.8-0.2-1.3-0.6c-0.4-0.2-0.6-0.6-0.6-0.8c0-0.2,0-0.2,0.4-0.4c0.6,1.1,1.1,1.1,3,1.1
						c0.4,0,0.6,0,1.3,0L221.9,26.9z"/>
				</g>
				<g id="Fill-16-Clipped">
					<g id="path-3_10_">
					</g>
					<path id="Fill-16" class="st0" d="M238.2,39.4c0,0.8,0.6,1.5,1.7,1.5c0.8,0,1.7-0.6,1.7-1.5s-0.6-1.5-1.7-1.5
						C239.1,37.7,238.2,38.5,238.2,39.4 M242.3,39.4c0,1.3-1.1,2.3-2.5,2.3c-1.3,0-2.3-1.1-2.3-2.3s1.1-2.3,2.3-2.3
						C241.2,36.8,242.3,37.9,242.3,39.4"/>
				</g>
			</g>
		</g>
	</g>
	<polygon class="st0" points="48.9,47.8 38.5,43.2 10,58.2 30.7,72.2 47.6,67.5 48.7,70.9 33.7,75.1 52.7,88 71.1,75.1 56.3,71.1 
		57.2,67.5 74.5,72.2 95.2,58.2 66.9,43 55.9,47.6 56.7,39.4 65.2,33 56.5,35.4 52.5,33 40.9,42.3 48.5,40 	"/>
</g>
</svg>
