<?xml version="1.0" encoding="utf-8"?>
<!-- Generator: Adobe Illustrator 22.0.1, SVG Export Plug-In . SVG Version: 6.00 Build 0)  -->
<svg version="1.1" id="レイヤー_1" xmlns="http://www.w3.org/2000/svg" xmlns:xlink="http://www.w3.org/1999/xlink" x="0px"
	 y="0px" viewBox="0 0 300 120" style="enable-background:new 0 0 300 120;" xml:space="preserve">
<style type="text/css">
	.st0{fill:#2374B0;}
	.st1{fill:#CE6624;}
	.st2{fill:#FFFFFF;}
	.st3{fill:#CE5C24;}
</style>
<g>
	<g>
		<polygon class="st0" points="65.9,10.6 5.7,10.6 5.7,39.5 30.5,52.2 30.5,109.5 41.1,109.5 41.1,52.2 65.9,39.2 		"/>
		<polygon class="st1" points="64.3,84.9 64.3,65.8 45.3,69.5 45.3,71 45.3,70.2 45.3,90.4 45.3,105.1 64.3,109.5 64.3,90.4 
			50.2,89 50.2,86.3 		"/>
	</g>
	<g>
		<rect x="85.9" y="10.6" class="st0" width="204.1" height="55.3"/>
	</g>
	<g>
		<path class="st2" d="M126.8,29.5V54H119V29.5h-7.8v-6.9h23.3v6.9H126.8z"/>
		<path class="st2" d="M155,54V22.6h21.5v6.9h-13.7v5.3h11.7v6.9h-11.7v5.5h13.7V54H155z"/>
		<path class="st2" d="M208.9,54.3c-3.7,0-6.5-1.2-8.8-3.5c-3.3-3.3-3.2-7.7-3.2-12.5s-0.1-9.2,3.2-12.5c2.3-2.3,5.1-3.5,8.8-3.5
			c6,0,10.8,3.3,12,10.3H213c-0.5-1.8-1.5-3.4-4-3.4c-1.4,0-2.5,0.6-3.1,1.3c-0.7,0.9-1.2,2-1.2,7.8s0.5,6.9,1.2,7.8
			c0.6,0.8,1.6,1.3,3.1,1.3c2.6,0,3.5-1.6,4-3.4h7.9C219.7,51,214.9,54.3,208.9,54.3z"/>
		<path class="st2" d="M256.9,54V41.6h-8.2V54h-7.8V22.6h7.8v12.1h8.2V22.6h7.8V54H256.9z"/>
	</g>
	<g>
		<g>
			<path class="st3" d="M107.5,78c4,0,6.5,2.5,7.3,6.2h5.6c-1.3-7.2-6.3-11.1-12.9-11.1c-3.8,0-7,1.4-9.5,3.9
				c-3.6,3.6-3.5,7.6-3.5,14.5c0,7-0.1,11,3.5,14.5c2.5,2.5,5.7,3.9,9.5,3.9c6.6,0,11.7-3.9,12.9-11.1h-5.5
				c-0.9,3.7-3.4,6.2-7.4,6.2c-2.1,0-4.1-0.8-5.3-2.2c-1.8-1.9-2.2-4-2.2-11.3c0-7.3,0.4-9.3,2.2-11.3C103.5,78.8,105.4,78,107.5,78
				z"/>
			<path class="st3" d="M141,83.4c-2.5,0-4.9,1-6.7,2.9v-13h-5.2v36.1h5.2V93.7c0-3.9,2.3-5.6,5.2-5.6c2.9,0,5.2,1.7,5.2,5.6v15.8
				h5.2V92.9C150,87.3,146.8,83.4,141,83.4z"/>
			<path class="st3" d="M168.3,83.4c-4.3,0-6.8,0.9-9.3,3.7l3.4,3.2c1.4-1.8,2.8-2.5,5.6-2.5c4,0,5.6,1.6,5.6,4.8v1.8h-6.8
				c-5.9,0-8.9,3.1-8.9,7.4c0,2.2,0.7,4.2,2,5.5c1.6,1.6,3.7,2.3,6.9,2.3c3.2,0,5-0.8,6.9-2.6v2.3h5.1V92.3
				C178.9,86.4,175.4,83.4,168.3,83.4z M173.7,100.2c0,1.8-0.4,3-1.1,3.8c-1.4,1.3-2.8,1.5-4.8,1.5c-3.3,0-4.7-1.3-4.7-3.7
				c0-2.3,1.6-3.7,4.6-3.7h6V100.2z"/>
			<path class="st3" d="M200.9,83.4c-2.6,0-5.1,1-6.9,2.9v-2.6h-5.1v25.7h5.2V93.8c0-4,2.4-5.7,5.3-5.7c2.9,0,5.2,1.7,5.2,5.7v15.7
				h5.2V93c0-2.9-0.6-5.3-2.6-7.3C205.7,84.3,203.5,83.4,200.9,83.4z"/>
			<path class="st3" d="M229,88.1c2,0,3.3,0.7,4.9,2.4l3.6-3.4c-2.4-2.6-4.9-3.6-8.5-3.6c-5.8,0-11.5,3.5-11.5,13.1
				s5.7,13.2,11.5,13.2c3.6,0,6-1.1,8.5-3.7l-3.6-3.4c-1.6,1.8-2.9,2.4-4.9,2.4c-2,0-3.7-0.8-4.8-2.3c-1.1-1.4-1.5-3.3-1.5-6.3
				s0.4-4.8,1.5-6.2C225.3,88.9,227,88.1,229,88.1z"/>
			<path class="st3" d="M255.1,83.4c-6.6,0-10.9,4.8-10.9,13.1c0,9.8,5.1,13.2,11.6,13.2c4.5,0,7-1.4,9.7-4l-3.3-3.1
				c-1.8,1.8-3.4,2.6-6.3,2.6c-4.2,0-6.6-2.8-6.6-7.2H266v-2.3C266,88.5,262,83.4,255.1,83.4z M249.3,94.5c0.1-1.6,0.2-2.3,0.7-3.5
				c0.8-1.9,2.7-3.2,5.1-3.2c2.4,0,4.3,1.3,5.1,3.2c0.5,1.2,0.7,1.9,0.7,3.5H249.3z"/>
			<rect x="278.3" y="104.2" class="st3" width="5.7" height="5.5"/>
			<polygon class="st3" points="283.2,99 284.3,73.7 278,73.7 279.1,99 			"/>
		</g>
		<g>
			<path class="st3" d="M107.5,78c4,0,6.5,2.5,7.3,6.2h5.6c-1.3-7.2-6.3-11.1-12.9-11.1c-3.8,0-7,1.4-9.5,3.9
				c-3.6,3.6-3.5,7.6-3.5,14.5c0,7-0.1,11,3.5,14.5c2.5,2.5,5.7,3.9,9.5,3.9c6.6,0,11.7-3.9,12.9-11.1h-5.5
				c-0.9,3.7-3.4,6.2-7.4,6.2c-2.1,0-4.1-0.8-5.3-2.2c-1.8-1.9-2.2-4-2.2-11.3c0-7.3,0.4-9.3,2.2-11.3C103.5,78.8,105.4,78,107.5,78
				z"/>
			<path class="st3" d="M141,83.4c-2.5,0-4.9,1-6.7,2.9v-13h-5.2v36.1h5.2V93.7c0-3.9,2.3-5.6,5.2-5.6c2.9,0,5.2,1.7,5.2,5.6v15.8
				h5.2V92.9C150,87.3,146.8,83.4,141,83.4z"/>
			<path class="st3" d="M168.3,83.4c-4.3,0-6.8,0.9-9.3,3.7l3.4,3.2c1.4-1.8,2.8-2.5,5.6-2.5c4,0,5.6,1.6,5.6,4.8v1.8h-6.8
				c-5.9,0-8.9,3.1-8.9,7.4c0,2.2,0.7,4.2,2,5.5c1.6,1.6,3.7,2.3,6.9,2.3c3.2,0,5-0.8,6.9-2.6v2.3h5.1V92.3
				C178.9,86.4,175.4,83.4,168.3,83.4z M173.7,100.2c0,1.8-0.4,3-1.1,3.8c-1.4,1.3-2.8,1.5-4.8,1.5c-3.3,0-4.7-1.3-4.7-3.7
				c0-2.3,1.6-3.7,4.6-3.7h6V100.2z"/>
			<path class="st3" d="M200.9,83.4c-2.6,0-5.1,1-6.9,2.9v-2.6h-5.1v25.7h5.2V93.8c0-4,2.4-5.7,5.3-5.7c2.9,0,5.2,1.7,5.2,5.7v15.7
				h5.2V93c0-2.9-0.6-5.3-2.6-7.3C205.7,84.3,203.5,83.4,200.9,83.4z"/>
			<path class="st3" d="M229,88.1c2,0,3.3,0.7,4.9,2.4l3.6-3.4c-2.4-2.6-4.9-3.6-8.5-3.6c-5.8,0-11.5,3.5-11.5,13.1
				s5.7,13.2,11.5,13.2c3.6,0,6-1.1,8.5-3.7l-3.6-3.4c-1.6,1.8-2.9,2.4-4.9,2.4c-2,0-3.7-0.8-4.8-2.3c-1.1-1.4-1.5-3.3-1.5-6.3
				s0.4-4.8,1.5-6.2C225.3,88.9,227,88.1,229,88.1z"/>
			<path class="st3" d="M255.1,83.4c-6.6,0-10.9,4.8-10.9,13.1c0,9.8,5.1,13.2,11.6,13.2c4.5,0,7-1.4,9.7-4l-3.3-3.1
				c-1.8,1.8-3.4,2.6-6.3,2.6c-4.2,0-6.6-2.8-6.6-7.2H266v-2.3C266,88.5,262,83.4,255.1,83.4z M249.3,94.5c0.1-1.6,0.2-2.3,0.7-3.5
				c0.8-1.9,2.7-3.2,5.1-3.2c2.4,0,4.3,1.3,5.1,3.2c0.5,1.2,0.7,1.9,0.7,3.5H249.3z"/>
			<rect x="278.3" y="104.2" class="st3" width="5.7" height="5.5"/>
			<polygon class="st3" points="283.2,99 284.3,73.7 278,73.7 279.1,99 			"/>
		</g>
	</g>
</g>
</svg>
